<?xml version="1.0" encoding="utf-8"?>
<!-- Generator: Adobe Illustrator 24.2.3, SVG Export Plug-In . SVG Version: 6.00 Build 0)  -->
<svg version="1.1" id="Layer_1" xmlns="http://www.w3.org/2000/svg" xmlns:xlink="http://www.w3.org/1999/xlink" x="0px" y="0px"
	 viewBox="0 0 521 115.3" style="enable-background:new 0 0 521 115.3;" xml:space="preserve">
<style type="text/css">
	.st0{clip-path:url(#SVGID_2_);fill:#5BBD72;}
	.st1{clip-path:url(#SVGID_4_);fill:#5BBD72;}
	.st2{clip-path:url(#SVGID_6_);fill:#253C4D;}
	.st3{clip-path:url(#SVGID_8_);fill:#FFFFFF;}
	.st4{clip-path:url(#SVGID_10_);fill:#253C4D;}
	.st5{clip-path:url(#SVGID_12_);fill:#253C4D;}
	.st6{clip-path:url(#SVGID_14_);fill:#253C4D;}
</style>
<g>
	<g>
		<defs>
			<rect id="SVGID_1_" x="-155.9" y="-255.3" width="841.9" height="595.3"/>
		</defs>
		<clipPath id="SVGID_2_">
			<use xlink:href="#SVGID_1_"  style="overflow:visible;"/>
		</clipPath>
		<path class="st0" d="M64.4,32.5c0,16,0.1,32.1-0.1,48.1c-0.1,7.2-1.6,14.2-5.6,20.5c-4.9,7.8-12.5,11.1-21.1,12.7
			c-1.9,0.4-5.2,0.9-11.4,0.9S15,113.9,12.3,113c-5.3-1.8-8.3-6.4-7.7-11.8c0.7-6,5.8-9.7,12-8.7c6.9,1.1,11.1,1.6,15.5,0.5
			c5-1.2,7.4-5.1,7.2-11.5c-3.3,2.2-6.4,4.4-15.8,4.4c-14.2-0.2-22-13.1-22-26.6c0-8.2-0.1-19.1,0-27.3C1.6,25.8,6,21.5,13,20.6
			c5.7-0.7,11.3,2.7,12.9,8c0.5,1.5,0.6,3.1,0.6,4.8c0,7.5,0.1,15.1,0.1,22.6c0,4.5,1.2,7.5,4.9,8.1c2.5,0.4,4.6-0.5,6.1-2.7
			c2-2.9,2.2-6.2,2.2-9.5c0.1-6.5,0-13,0-19.6c0-6.4,4.2-11.1,11-11.6c5.5-0.4,11.5,1.6,13.4,8.5C64.4,30.3,64.4,31.4,64.4,32.5
			 M299.6,24.1c-7.7-5.2-22.1-5.7-30.5,4.9c-0.6,0.8-1.4,1.3-2.1,0.2c-5.3-7.8-15.6-10.1-23.5-7.7c-4.4,1.3-7.9,4-10.9,7.6
			c-0.3,0.3-0.9,0.7-1.6-0.2c-1.3-1.7-2.8-3.4-4.7-4.8c-7.6-5.2-22.1-5.7-30.5,4.9c-0.6,0.8-1.5,1.2-2.1,0.2
			c-5-8-15.6-10.1-23.5-7.7c-4.4,1.4-7.9,4-10.9,7.6c-0.3,0.4-1,0.3-1.2-0.2c-0.2-0.6-0.5-1.2-0.7-1.7c-1.9-4.5-6.6-7.2-11.5-6.4
			c-6.9,1.2-8.8,6.4-8.8,14.1c0,13.1-0.1,26.7-0.1,40.1c0,8.6,4,15,12.3,14.9c7.9-0.2,12.3-5.6,12.1-11.9c-0.1-4.5-0.2-9.1-0.1-13.6
			c0.1-4.8,0.1-8.9,0.1-13.6c0-2.5,1-5.4,3-7.2c2.8-2.6,6.8-1.6,8.2,1.9c0.7,1.8,0.7,3.7,0.8,5.6c0.1,8.9,0.1,17.7,0.1,26.6
			c0.1,6.2,3.3,10.3,9.1,11.7c7,1.7,13.6-1.7,15.4-8.1c0.4-1.4,0.3-2.9,0.3-4.4c0.2-9.1,0.3-17,0.3-26.2c0-2.5,0.9-5.9,2.9-7.4
			c2.7-2,5.7-1.3,7.5,1.5c0.6,0.9,1,2.2,1,3.4c0,9.9,0,19.8,0,29.6c0,6.8,5,11.8,11.9,12c0.3,0,0.6,0,0.9,0
			c6.6,0.1,12.2-4.5,12.2-10.9c0-9.9,0.1-18.9,0.1-29.6c0-2.3,1-4.5,2.6-5.9c2.9-2.5,6.8-1.6,8.2,1.9c0.7,1.8,0.8,3.3,0.8,5.6
			c0,8.9,0.1,17.7,0.1,26.6c0.1,6.2,3.3,10.3,9.1,11.7c7,1.7,13.6-1.7,15.4-8.1c0.4-1.4,0.3-2.9,0.3-4.4c0.2-9.1,0.3-17.8,0.3-27.2
			c0-2.5,0.9-4.7,2.9-6.4c2.5-2.2,6.1-1.5,7.5,1.5c0.7,1.5,1.1,3.2,1.1,4.9c0,9.3,0,18.6,0.1,27.9c0.1,7.3,5.2,12.2,12.6,12.3
			c6.6,0.1,12.2-4.5,12.2-10.9c0.1-13,0-24.1,0-38.5C308.3,34.1,306,28.4,299.6,24.1 M381.6,80c0,5.6-2.7,8.3-6.5,9.4
			c-4.6,1.3-9.9-0.6-11.9-4.3c-0.4-0.7-0.8-1.4-1.3-2.2c-0.3-0.6-1.2-0.8-1.7-0.2c-3.1,3.2-6.7,5.4-11.1,6.4
			c-14.2,3.1-27.5-2.8-32.3-18.6c-3-9.8-3-19.8,0.3-29.5c6.5-19,25.4-24.5,41.7-17.2c1.6,0.7,2.4,0.6,3.8-0.5
			c3.8-3.3,8.4-3.3,12.8-1.5c4.3,1.7,6.1,5.4,6.2,9.8C381.7,47.6,381.6,63.8,381.6,80 M356.9,47.4c0-1,0.2-2.5-0.7-3.3
			c-2.9-2.6-6.1-3.6-9.9-2.9c-3.4,0.6-5.4,2.9-6.5,6.1c-1.6,4.7-1.7,9.5-0.7,14.3c1.2,5.4,4.8,8.2,10,7.7c4.1-0.3,7.7-4,7.7-9.4
			c0-2.7,0-5.2,0.1-7.9C357,50.5,357,49,356.9,47.4 M130.5,46.4c-1.2,9.3-6.4,14-16.8,16.8c-5.9,1.6-11.9,2.4-18.1,2.7
			c1,3.3,3.3,5,7.3,5.2s7.8-0.8,11.6-2c2.1-0.7,4.2-1.5,6.4-1.3c3.4,0.3,5.9,1.9,7.3,5.1c2.3,5.2-1.7,11.3-4.7,13.1
			c-7.2,4.3-22.4,5.9-33.5,2.2c-9.6-3.2-15.7-9.5-18.1-19.3c-2.7-10.8-2.6-21.4,2.2-31.7c4.6-9.8,12.8-14.6,23.2-16.2
			c6.2-0.9,12.4-0.6,18.4,1.2C127.4,25.7,132,35.6,130.5,46.4 M108.4,43.1c0-2.4-1.2-4.4-3.8-4.6c-2.9-0.3-5.6,0.4-7.5,3
			c-2.1,2.8-2.6,6.1-2.8,9.5c0,0.6-0.1,1.2,0.9,1.1c3.3-0.4,6.6-0.8,9.7-2.4C107.2,48.3,108.4,46.3,108.4,43.1"/>
	</g>
	<g>
		<defs>
			<rect id="SVGID_3_" x="-155.9" y="-255.3" width="841.9" height="595.3"/>
		</defs>
		<clipPath id="SVGID_4_">
			<use xlink:href="#SVGID_3_"  style="overflow:visible;"/>
		</clipPath>
		<path class="st1" d="M511,106.2h-85.2c-5.5,0-10-4.5-10-10V10.9c0-5.5,4.5-10,10-10H511c5.5,0,10,4.5,10,10v85.2
			C521,101.7,516.5,106.2,511,106.2"/>
	</g>
	<g>
		<defs>
			<rect id="SVGID_5_" x="-155.9" y="-255.3" width="841.9" height="595.3"/>
		</defs>
		<clipPath id="SVGID_6_">
			<use xlink:href="#SVGID_5_"  style="overflow:visible;"/>
		</clipPath>
		<path class="st2" d="M468.4,8.4c-19.1,0-34.7,3-34.7,6.7v6.8c0,3.7,15.5,6.7,34.7,6.7c19.1,0,34.7-3,34.7-6.7v-6.8
			C503,11.4,487.5,8.4,468.4,8.4"/>
	</g>
	<g>
		<defs>
			<rect id="SVGID_7_" x="-155.9" y="-255.3" width="841.9" height="595.3"/>
		</defs>
		<clipPath id="SVGID_8_">
			<use xlink:href="#SVGID_7_"  style="overflow:visible;"/>
		</clipPath>
		<path class="st3" d="M500.3,28.1c-8.5,3.4-23.9,3.9-31.9,3.9c-8.1,0-23.8-0.5-32.2-4c-1.8,3.5-8.6,6.2-8.6,14c0,5.4,0,16.3,0,32.9
			c0,6.1,3.7,11.5,9.4,13.8l19.7,7.8c7.7,3,16.2,3,23.9,0l19.4-7.7c5.6-2.2,9.3-7.7,9.3-13.7V42C509.2,34.3,502.1,31.3,500.3,28.1"
			/>
	</g>
	<g>
		<defs>
			<rect id="SVGID_9_" x="-155.9" y="-255.3" width="841.9" height="595.3"/>
		</defs>
		<clipPath id="SVGID_10_">
			<use xlink:href="#SVGID_9_"  style="overflow:visible;"/>
		</clipPath>
		<path class="st4" d="M436.9,76.5c-1.5-0.5-2.4-1.9-2.2-3.4c0.2-1.7,1.7-2.8,3.5-2.5c1.9,0.3,3.2,0.4,4.5,0.2
			c1.4-0.3,2.2-1.5,2.1-3.4c-0.9,0.6-2,1-3.1,1.2c-1.5,0.2-2.9,0.2-4.3-0.4c-2.1-0.8-3-2.5-3.3-4.6c-0.2-1.1-0.3-2.3-0.3-3.4
			c0-2.8,0-4.4,0-7.2c0-1.8,1.3-3.1,3.3-3.3c1.6-0.2,3.3,0.8,3.8,2.3c0.1,0.5,0.2,0.9,0.2,1.4c0,2.2,0,4.4,0,6.6
			c0,1.7,0.7,2.3,1.4,2.3c0.7,0.1,1.3-0.1,1.8-0.8c0.6-0.8,0.6-1.8,0.6-2.8c0-1.9,0-3.8,0-5.7s1.2-3.2,3.2-3.4
			c1.6-0.1,3.3,0.5,3.9,2.5c0.1,0.3,0.1,0.6,0.1,0.9c0,4.7,0,9.3,0,14c0,2.1-0.5,4.1-1.6,6c-1.4,2.3-3.6,3.2-6.1,3.7
			c-0.6,0.1-2,0.3-3.3,0.3C439.5,77,437.8,76.7,436.9,76.5"/>
	</g>
	<g>
		<defs>
			<rect id="SVGID_11_" x="-155.9" y="-255.3" width="841.9" height="595.3"/>
		</defs>
		<clipPath id="SVGID_12_">
			<use xlink:href="#SVGID_11_"  style="overflow:visible;"/>
		</clipPath>
		<path class="st5" d="M481.2,52.3c0.9-1.2,2-2.1,3.4-2.5c2.3-0.7,5.4-0.1,6.9,2.2c0.3,0.5,0.4,0.2,0.6-0.1c2.4-3.1,6.7-2.9,8.9-1.4
			c1.6,1.1,2.3,2.8,2.4,4.6c0.3,3.8,0.1,7.6,0.1,11.4c0,1.9-1.6,3.2-3.6,3.2c-2.2,0-3.6-1.4-3.7-3.6c0-2.7,0-5.4,0-8.1
			c0-0.5-0.1-1-0.3-1.4c-0.4-0.9-1.5-1.1-2.2-0.4c-0.6,0.5-0.8,1.2-0.8,1.9c-0.2,2.6,0,5.3-0.1,7.9c0,0.4,0,0.9-0.1,1.3
			c-0.5,1.8-2.4,2.8-4.5,2.3c-1.7-0.4-2.6-1.6-2.7-3.4c0-2.6,0-5.2,0-7.7c0-0.6,0-1.1-0.2-1.6c-0.4-1-1.6-1.3-2.4-0.6
			c-0.5,0.5-0.7,1.2-0.8,1.9c-0.1,1.1-0.1,2.2-0.1,3.3c0,1.6,0,3.2,0,4.8c0.1,1.8-1.2,3.4-3.5,3.5c-2.1,0-3.7-1.5-3.7-3.5
			c0-4.5,0-9,0-13.6c0-1.6,1-2.7,2.6-3s2.8,0.3,3.5,1.8C481,51.7,481.1,52,481.2,52.3"/>
	</g>
	<g>
		<defs>
			<rect id="SVGID_13_" x="-155.9" y="-255.3" width="841.9" height="595.3"/>
		</defs>
		<clipPath id="SVGID_14_">
			<use xlink:href="#SVGID_13_"  style="overflow:visible;"/>
		</clipPath>
		<path class="st6" d="M462,62.8c0.3,1,1,1.4,2.1,1.5c1.2,0.1,2.3-0.2,3.4-0.6c0.6-0.2,1.2-0.4,1.9-0.4c1,0.1,1.7,0.5,2.1,1.5
			c0.4,1.1,0.7,2.9-1.4,3.8c-3.1,1.4-6.4,1.6-9.8,0.6c-2.8-0.8-4.6-2.8-5.3-5.6c-0.8-3.1-0.8-6.2,0.6-9.2c1.3-2.8,3.7-4.3,6.8-4.7
			c1.8-0.3,3.6-0.2,5.4,0.4c3.4,1,4.7,3.9,4.3,7c-0.4,2.7-1.9,4.2-4.9,4.9C465.6,62.4,463.8,62.6,462,62.8 M465.8,56.1
			c0-0.7-0.4-1.3-1.1-1.3c-0.9-0.1-1.6,0.1-2.2,0.9c-0.6,0.8-0.8,1.8-0.8,2.8c0,0.2,0,0.3,0.3,0.3c1-0.1,1.9-0.2,2.8-0.7
			C465.4,57.6,465.8,57.1,465.8,56.1"/>
	</g>
</g>
</svg>
